<svg width="280" height="230" viewBox="0 0 280 230" fill="none" xmlns="http://www.w3.org/2000/svg">
<path d="M232 208.5C141.924 257.355 58.5002 213.5 21 159.5C-1.49994 101 -9.5009 76 36.4998 28C102.287 -40.6461 159.427 67.6065 191.5 85.5C286.5 138.5 261.5 192.5 232 208.5Z" fill="#155E75"/>
<mask id="path-2-outside-1_309_85" maskUnits="userSpaceOnUse" x="-2" y="45" width="234" height="77" fill="black">
<rect fill="white" x="-2" y="45" width="234" height="77"/>
<path d="M21.4688 117.938C18 117.938 14.8281 117.062 11.9531 115.312C9.10938 113.562 6.84375 111.219 5.15625 108.281C3.5 105.312 2.67188 102.016 2.67188 98.3906L2.76562 68.4375C2.76562 64.875 3.57812 61.6562 5.20312 58.7812C6.82812 55.875 9.0625 53.5469 11.9062 51.7969C14.7812 50.0156 17.9688 49.125 21.4688 49.125C25.0312 49.125 28.2031 49.9844 30.9844 51.7031C33.7969 53.4219 36.0312 55.75 37.6875 58.6875C39.375 61.5938 40.2188 64.8438 40.2188 68.4375V72.8438C40.2188 73.0938 40.0938 73.2188 39.8438 73.2188H29.0625C28.8125 73.2188 28.6875 73.0938 28.6875 72.8438V68.4375C28.6875 66.3125 28 64.4844 26.625 62.9531C25.25 61.4219 23.5312 60.6562 21.4688 60.6562C19.1875 60.6562 17.4375 61.4375 16.2188 63C15 64.5625 14.3906 66.375 14.3906 68.4375V98.3906C14.3906 100.734 15.0781 102.656 16.4531 104.156C17.8281 105.625 19.5 106.359 21.4688 106.359C23.5312 106.359 25.25 105.547 26.625 103.922C28 102.266 28.6875 100.422 28.6875 98.3906V93.9375C28.6875 93.6875 28.8125 93.5625 29.0625 93.5625H39.9375C40.1875 93.5625 40.3125 93.6875 40.3125 93.9375V98.3906C40.3125 101.984 39.4688 105.266 37.7812 108.234C36.0625 111.172 33.7969 113.531 30.9844 115.312C28.1719 117.062 25 117.938 21.4688 117.938ZM58.6406 117H47.7656C47.4531 117 47.2969 116.844 47.2969 116.531L47.3906 50.5781C47.3906 50.3281 47.5156 50.2031 47.7656 50.2031H58.5469C58.7969 50.2031 58.9219 50.3281 58.9219 50.5781L59.0156 116.531C59.0156 116.844 58.8906 117 58.6406 117ZM78.7031 117H67.8281C67.5781 117 67.4531 116.844 67.4531 116.531L67.6406 50.5781C67.6406 50.3281 67.7656 50.2031 68.0156 50.2031H87.4219C90.8906 50.2031 94.0781 51.0469 96.9844 52.7344C99.8906 54.4219 102.203 56.6875 103.922 59.5312C105.672 62.375 106.547 65.5938 106.547 69.1875C106.547 71.5312 106.188 73.6562 105.469 75.5625C104.75 77.4688 103.906 79.0781 102.938 80.3906C102 81.7031 101.141 82.6719 100.359 83.2969C103.828 87.1406 105.562 91.6562 105.562 96.8438L105.656 116.531C105.656 116.844 105.5 117 105.188 117H94.3125C94.0625 117 93.9375 116.906 93.9375 116.719V96.8438C93.9375 94.5312 93.125 92.5312 91.5 90.8438C89.875 89.1562 87.875 88.3125 85.5 88.3125H79.1719L79.0781 116.531C79.0781 116.844 78.9531 117 78.7031 117ZM87.4219 61.6875H79.1719V76.7812H87.4219C89.3906 76.7812 91.1406 76.0469 92.6719 74.5781C94.2344 73.1094 95.0156 71.3125 95.0156 69.1875C95.0156 67.1562 94.2656 65.4062 92.7656 63.9375C91.2656 62.4375 89.4844 61.6875 87.4219 61.6875ZM131.438 117.938C127.969 117.938 124.797 117.062 121.922 115.312C119.078 113.562 116.812 111.219 115.125 108.281C113.469 105.312 112.641 102.016 112.641 98.3906L112.734 68.4375C112.734 64.875 113.547 61.6562 115.172 58.7812C116.797 55.875 119.031 53.5469 121.875 51.7969C124.75 50.0156 127.938 49.125 131.438 49.125C135 49.125 138.172 49.9844 140.953 51.7031C143.766 53.4219 146 55.75 147.656 58.6875C149.344 61.5938 150.188 64.8438 150.188 68.4375V72.8438C150.188 73.0938 150.062 73.2188 149.812 73.2188H139.031C138.781 73.2188 138.656 73.0938 138.656 72.8438V68.4375C138.656 66.3125 137.969 64.4844 136.594 62.9531C135.219 61.4219 133.5 60.6562 131.438 60.6562C129.156 60.6562 127.406 61.4375 126.188 63C124.969 64.5625 124.359 66.375 124.359 68.4375V98.3906C124.359 100.734 125.047 102.656 126.422 104.156C127.797 105.625 129.469 106.359 131.438 106.359C133.5 106.359 135.219 105.547 136.594 103.922C137.969 102.266 138.656 100.422 138.656 98.3906V93.9375C138.656 93.6875 138.781 93.5625 139.031 93.5625H149.906C150.156 93.5625 150.281 93.6875 150.281 93.9375V98.3906C150.281 101.984 149.438 105.266 147.75 108.234C146.031 111.172 143.766 113.531 140.953 115.312C138.141 117.062 134.969 117.938 131.438 117.938ZM188.672 117H157.641C157.391 117 157.266 116.844 157.266 116.531L157.359 50.6719C157.359 50.3594 157.516 50.2031 157.828 50.2031H168.516C168.828 50.2031 168.984 50.3594 168.984 50.6719L168.891 105.188H188.672C188.984 105.188 189.141 105.344 189.141 105.656V116.531C189.141 116.844 188.984 117 188.672 117ZM226.828 117H195.797C195.547 117 195.422 116.844 195.422 116.531L195.516 50.5781C195.516 50.3281 195.641 50.2031 195.891 50.2031H226.734C226.984 50.2031 227.109 50.3594 227.109 50.6719V61.4062C227.109 61.6562 226.984 61.7812 226.734 61.7812H207.047V76.7812H226.734C226.984 76.7812 227.109 76.9062 227.109 77.1562L227.203 88.0312C227.203 88.2812 227.078 88.4062 226.828 88.4062H207.047V105.188H226.828C227.078 105.188 227.203 105.344 227.203 105.656V116.625C227.203 116.875 227.078 117 226.828 117Z"/>
</mask>
<path d="M21.4688 117.938C18 117.938 14.8281 117.062 11.9531 115.312C9.10938 113.562 6.84375 111.219 5.15625 108.281C3.5 105.312 2.67188 102.016 2.67188 98.3906L2.76562 68.4375C2.76562 64.875 3.57812 61.6562 5.20312 58.7812C6.82812 55.875 9.0625 53.5469 11.9062 51.7969C14.7812 50.0156 17.9688 49.125 21.4688 49.125C25.0312 49.125 28.2031 49.9844 30.9844 51.7031C33.7969 53.4219 36.0312 55.75 37.6875 58.6875C39.375 61.5938 40.2188 64.8438 40.2188 68.4375V72.8438C40.2188 73.0938 40.0938 73.2188 39.8438 73.2188H29.0625C28.8125 73.2188 28.6875 73.0938 28.6875 72.8438V68.4375C28.6875 66.3125 28 64.4844 26.625 62.9531C25.25 61.4219 23.5312 60.6562 21.4688 60.6562C19.1875 60.6562 17.4375 61.4375 16.2188 63C15 64.5625 14.3906 66.375 14.3906 68.4375V98.3906C14.3906 100.734 15.0781 102.656 16.4531 104.156C17.8281 105.625 19.5 106.359 21.4688 106.359C23.5312 106.359 25.25 105.547 26.625 103.922C28 102.266 28.6875 100.422 28.6875 98.3906V93.9375C28.6875 93.6875 28.8125 93.5625 29.0625 93.5625H39.9375C40.1875 93.5625 40.3125 93.6875 40.3125 93.9375V98.3906C40.3125 101.984 39.4688 105.266 37.7812 108.234C36.0625 111.172 33.7969 113.531 30.9844 115.312C28.1719 117.062 25 117.938 21.4688 117.938ZM58.6406 117H47.7656C47.4531 117 47.2969 116.844 47.2969 116.531L47.3906 50.5781C47.3906 50.3281 47.5156 50.2031 47.7656 50.2031H58.5469C58.7969 50.2031 58.9219 50.3281 58.9219 50.5781L59.0156 116.531C59.0156 116.844 58.8906 117 58.6406 117ZM78.7031 117H67.8281C67.5781 117 67.4531 116.844 67.4531 116.531L67.6406 50.5781C67.6406 50.3281 67.7656 50.2031 68.0156 50.2031H87.4219C90.8906 50.2031 94.0781 51.0469 96.9844 52.7344C99.8906 54.4219 102.203 56.6875 103.922 59.5312C105.672 62.375 106.547 65.5938 106.547 69.1875C106.547 71.5312 106.188 73.6562 105.469 75.5625C104.75 77.4688 103.906 79.0781 102.938 80.3906C102 81.7031 101.141 82.6719 100.359 83.2969C103.828 87.1406 105.562 91.6562 105.562 96.8438L105.656 116.531C105.656 116.844 105.5 117 105.188 117H94.3125C94.0625 117 93.9375 116.906 93.9375 116.719V96.8438C93.9375 94.5312 93.125 92.5312 91.5 90.8438C89.875 89.1562 87.875 88.3125 85.5 88.3125H79.1719L79.0781 116.531C79.0781 116.844 78.9531 117 78.7031 117ZM87.4219 61.6875H79.1719V76.7812H87.4219C89.3906 76.7812 91.1406 76.0469 92.6719 74.5781C94.2344 73.1094 95.0156 71.3125 95.0156 69.1875C95.0156 67.1562 94.2656 65.4062 92.7656 63.9375C91.2656 62.4375 89.4844 61.6875 87.4219 61.6875ZM131.438 117.938C127.969 117.938 124.797 117.062 121.922 115.312C119.078 113.562 116.812 111.219 115.125 108.281C113.469 105.312 112.641 102.016 112.641 98.3906L112.734 68.4375C112.734 64.875 113.547 61.6562 115.172 58.7812C116.797 55.875 119.031 53.5469 121.875 51.7969C124.75 50.0156 127.938 49.125 131.438 49.125C135 49.125 138.172 49.9844 140.953 51.7031C143.766 53.4219 146 55.75 147.656 58.6875C149.344 61.5938 150.188 64.8438 150.188 68.4375V72.8438C150.188 73.0938 150.062 73.2188 149.812 73.2188H139.031C138.781 73.2188 138.656 73.0938 138.656 72.8438V68.4375C138.656 66.3125 137.969 64.4844 136.594 62.9531C135.219 61.4219 133.5 60.6562 131.438 60.6562C129.156 60.6562 127.406 61.4375 126.188 63C124.969 64.5625 124.359 66.375 124.359 68.4375V98.3906C124.359 100.734 125.047 102.656 126.422 104.156C127.797 105.625 129.469 106.359 131.438 106.359C133.5 106.359 135.219 105.547 136.594 103.922C137.969 102.266 138.656 100.422 138.656 98.3906V93.9375C138.656 93.6875 138.781 93.5625 139.031 93.5625H149.906C150.156 93.5625 150.281 93.6875 150.281 93.9375V98.3906C150.281 101.984 149.438 105.266 147.75 108.234C146.031 111.172 143.766 113.531 140.953 115.312C138.141 117.062 134.969 117.938 131.438 117.938ZM188.672 117H157.641C157.391 117 157.266 116.844 157.266 116.531L157.359 50.6719C157.359 50.3594 157.516 50.2031 157.828 50.2031H168.516C168.828 50.2031 168.984 50.3594 168.984 50.6719L168.891 105.188H188.672C188.984 105.188 189.141 105.344 189.141 105.656V116.531C189.141 116.844 188.984 117 188.672 117ZM226.828 117H195.797C195.547 117 195.422 116.844 195.422 116.531L195.516 50.5781C195.516 50.3281 195.641 50.2031 195.891 50.2031H226.734C226.984 50.2031 227.109 50.3594 227.109 50.6719V61.4062C227.109 61.6562 226.984 61.7812 226.734 61.7812H207.047V76.7812H226.734C226.984 76.7812 227.109 76.9062 227.109 77.1562L227.203 88.0312C227.203 88.2812 227.078 88.4062 226.828 88.4062H207.047V105.188H226.828C227.078 105.188 227.203 105.344 227.203 105.656V116.625C227.203 116.875 227.078 117 226.828 117Z" fill="white"/>
<path d="M11.9531 115.312L9.85674 118.719L9.86502 118.724L9.87334 118.729L11.9531 115.312ZM5.15625 108.281L1.6631 110.23L1.67532 110.252L1.68783 110.274L5.15625 108.281ZM2.67188 98.3906L-1.32812 98.3781V98.3906H2.67188ZM2.76562 68.4375L6.76562 68.45V68.4375H2.76562ZM5.20312 58.7812L8.68538 60.7495L8.68992 60.7414L8.69443 60.7334L5.20312 58.7812ZM11.9062 51.7969L14.0026 55.2035L14.0129 55.1971L11.9062 51.7969ZM30.9844 51.7031L28.8816 55.1058L28.8901 55.1111L28.8986 55.1163L30.9844 51.7031ZM37.6875 58.6875L34.2032 60.6521L34.2156 60.6741L34.2283 60.696L37.6875 58.6875ZM16.4531 104.156L13.5045 106.859L13.5187 106.875L13.533 106.89L16.4531 104.156ZM26.625 103.922L29.6785 106.506L29.6907 106.491L29.7026 106.477L26.625 103.922ZM37.7812 108.234L41.2337 110.254L41.2463 110.233L41.2587 110.211L37.7812 108.234ZM30.9844 115.312L33.0976 118.709L33.1111 118.7L33.1246 118.692L30.9844 115.312ZM21.4688 113.938C18.71 113.938 16.2614 113.252 14.0329 111.896L9.87334 118.729C13.3948 120.873 17.29 121.938 21.4688 121.938V113.938ZM14.0495 111.906C11.7824 110.511 9.98495 108.657 8.62467 106.289L1.68783 110.274C3.70255 113.781 6.4363 116.614 9.85674 118.719L14.0495 111.906ZM8.6494 106.332C7.34758 103.999 6.67188 101.38 6.67188 98.3906H-1.32812C-1.32812 102.651 -0.347578 106.626 1.6631 110.23L8.6494 106.332ZM6.67186 98.4031L6.76561 68.45L-1.23436 68.425L-1.32811 98.3781L6.67186 98.4031ZM6.76562 68.4375C6.76562 65.5088 7.42629 62.9771 8.68538 60.7495L1.72087 56.813C-0.270044 60.3354 -1.23438 64.2412 -1.23438 68.4375H6.76562ZM8.69443 60.7334C9.98523 58.4248 11.7387 56.5967 14.0026 55.2035L9.80986 48.3902C6.38634 50.497 3.67102 53.3252 1.71182 56.8291L8.69443 60.7334ZM14.0129 55.1971C16.2324 53.8221 18.6858 53.125 21.4688 53.125V45.125C17.2517 45.125 13.3301 46.2092 9.79956 48.3966L14.0129 55.1971ZM21.4688 53.125C24.3574 53.125 26.7884 53.8123 28.8816 55.1058L33.0872 48.3004C29.6178 46.1565 25.7051 45.125 21.4688 45.125V53.125ZM28.8986 55.1163C31.1151 56.4708 32.8739 58.2944 34.2032 60.6521L41.1718 56.7229C39.1886 53.2056 36.4786 50.3729 33.0702 48.29L28.8986 55.1163ZM34.2283 60.696C35.537 62.9498 36.2188 65.4986 36.2188 68.4375H44.2188C44.2188 64.1889 43.213 60.2377 41.1467 56.679L34.2283 60.696ZM36.2188 68.4375V72.8438H44.2188V68.4375H36.2188ZM36.2188 72.8438C36.2188 72.3522 36.3444 71.2488 37.2966 70.2966C38.2488 69.3444 39.3522 69.2188 39.8438 69.2188V77.2188C40.5853 77.2188 41.8762 77.0306 42.9534 75.9534C44.0306 74.8762 44.2188 73.5853 44.2188 72.8438H36.2188ZM39.8438 69.2188H29.0625V77.2188H39.8438V69.2188ZM29.0625 69.2188C29.5541 69.2188 30.6575 69.3444 31.6097 70.2966C32.5619 71.2488 32.6875 72.3522 32.6875 72.8438H24.6875C24.6875 73.5853 24.8756 74.8762 25.9528 75.9534C27.03 77.0306 28.3209 77.2188 29.0625 77.2188V69.2188ZM32.6875 72.8438V68.4375H24.6875V72.8438H32.6875ZM32.6875 68.4375C32.6875 65.3612 31.6586 62.5718 29.6012 60.2806L23.6488 65.6256C24.3414 66.3969 24.6875 67.2638 24.6875 68.4375H32.6875ZM29.6012 60.2806C27.4656 57.9024 24.6639 56.6562 21.4688 56.6562V64.6562C22.3986 64.6562 23.0344 64.9414 23.6488 65.6256L29.6012 60.2806ZM21.4688 56.6562C18.1658 56.6562 15.1623 57.8507 13.0647 60.5399L19.3728 65.4601C19.7127 65.0243 20.2092 64.6562 21.4688 64.6562V56.6562ZM13.0647 60.5399C11.2741 62.8355 10.3906 65.5228 10.3906 68.4375H18.3906C18.3906 67.2272 18.7259 66.2895 19.3728 65.4601L13.0647 60.5399ZM10.3906 68.4375V98.3906H18.3906V68.4375H10.3906ZM10.3906 98.3906C10.3906 101.573 11.3509 104.51 13.5045 106.859L19.4017 101.453C18.8053 100.803 18.3906 99.8961 18.3906 98.3906H10.3906ZM13.533 106.89C15.6455 109.146 18.3662 110.359 21.4688 110.359V102.359C20.6338 102.359 20.0107 102.104 19.3732 101.423L13.533 106.89ZM21.4688 110.359C24.7506 110.359 27.5716 108.996 29.6785 106.506L23.5715 101.338C22.9284 102.098 22.3119 102.359 21.4688 102.359V110.359ZM29.7026 106.477C31.6352 104.149 32.6875 101.414 32.6875 98.3906H24.6875C24.6875 99.4302 24.3648 100.382 23.5474 101.367L29.7026 106.477ZM32.6875 98.3906V93.9375H24.6875V98.3906H32.6875ZM32.6875 93.9375C32.6875 94.4291 32.5619 95.5325 31.6097 96.4847C30.6575 97.4369 29.5541 97.5625 29.0625 97.5625V89.5625C28.3209 89.5625 27.03 89.7506 25.9528 90.8278C24.8756 91.905 24.6875 93.1959 24.6875 93.9375H32.6875ZM29.0625 97.5625H39.9375V89.5625H29.0625V97.5625ZM39.9375 97.5625C39.4459 97.5625 38.3425 97.4369 37.3903 96.4847C36.4381 95.5325 36.3125 94.4291 36.3125 93.9375H44.3125C44.3125 93.1959 44.1244 91.905 43.0472 90.8278C41.97 89.7506 40.6791 89.5625 39.9375 89.5625V97.5625ZM36.3125 93.9375V98.3906H44.3125V93.9375H36.3125ZM36.3125 98.3906C36.3125 101.329 35.6306 103.923 34.3038 106.258L41.2587 110.211C43.3069 106.608 44.3125 102.64 44.3125 98.3906H36.3125ZM34.3288 106.214C32.9252 108.613 31.1046 110.502 28.8442 111.933L33.1246 118.692C36.4891 116.561 39.1998 113.731 41.2337 110.254L34.3288 106.214ZM28.8712 111.916C26.7352 113.245 24.3045 113.938 21.4688 113.938V121.938C25.6955 121.938 29.6086 120.88 33.0976 118.709L28.8712 111.916ZM47.2969 116.531L43.2969 116.526V116.531H47.2969ZM47.3906 50.5781L51.3906 50.5838V50.5781H47.3906ZM58.9219 50.5781L54.9219 50.5781L54.9219 50.5838L58.9219 50.5781ZM59.0156 116.531L63.0156 116.531L63.0156 116.526L59.0156 116.531ZM58.6406 113H47.7656V121H58.6406V113ZM47.7656 113C48.226 113 49.3059 113.118 50.2425 114.054C51.1791 114.991 51.2969 116.071 51.2969 116.531H43.2969C43.2969 117.304 43.4928 118.618 44.5856 119.711C45.6785 120.804 46.9928 121 47.7656 121V113ZM51.2969 116.537L51.3906 50.5838L43.3906 50.5724L43.2969 116.526L51.2969 116.537ZM51.3906 50.5781C51.3906 51.0697 51.265 52.1731 50.3128 53.1253C49.3606 54.0775 48.2572 54.2031 47.7656 54.2031V46.2031C47.024 46.2031 45.7332 46.3912 44.6559 47.4684C43.5787 48.5457 43.3906 49.8365 43.3906 50.5781H51.3906ZM47.7656 54.2031H58.5469V46.2031H47.7656V54.2031ZM58.5469 54.2031C58.0553 54.2031 56.9519 54.0775 55.9997 53.1253C55.0475 52.1731 54.9219 51.0697 54.9219 50.5781H62.9219C62.9219 49.8365 62.7338 48.5457 61.6566 47.4684C60.5793 46.3912 59.2885 46.2031 58.5469 46.2031V54.2031ZM54.9219 50.5838L55.0156 116.537L63.0156 116.526L62.9219 50.5724L54.9219 50.5838ZM55.0156 116.531C55.0156 116.26 55.0524 115.317 55.7984 114.384C56.6808 113.281 57.8828 113 58.6406 113V121C59.6484 121 61.038 120.641 62.0454 119.382C62.9164 118.293 63.0156 117.115 63.0156 116.531H55.0156ZM67.4531 116.531L63.4531 116.52V116.531H67.4531ZM67.6406 50.5781L71.6406 50.5895V50.5781H67.6406ZM103.922 59.5312L100.499 61.6003L100.507 61.614L100.515 61.6276L103.922 59.5312ZM102.938 80.3906L99.7192 78.0152L99.7007 78.0403L99.6826 78.0657L102.938 80.3906ZM100.359 83.2969L97.8606 80.1734L94.5458 82.8253L97.3898 85.9767L100.359 83.2969ZM105.562 96.8438H101.562V96.8533L101.563 96.8628L105.562 96.8438ZM105.656 116.531H109.656V116.522L109.656 116.512L105.656 116.531ZM79.1719 88.3125V84.3125H75.1851L75.1719 88.2992L79.1719 88.3125ZM79.0781 116.531L75.0781 116.518V116.531H79.0781ZM79.1719 61.6875V57.6875H75.1719V61.6875H79.1719ZM79.1719 76.7812H75.1719V80.7812H79.1719V76.7812ZM92.6719 74.5781L89.9322 71.6636L89.9175 71.6774L89.903 71.6914L92.6719 74.5781ZM92.7656 63.9375L89.9372 66.7659L89.9521 66.7808L89.9671 66.7955L92.7656 63.9375ZM78.7031 113H67.8281V121H78.7031V113ZM67.8281 113C68.5859 113 69.788 113.281 70.6704 114.384C71.4164 115.317 71.4531 116.26 71.4531 116.531H63.4531C63.4531 117.115 63.5524 118.293 64.4234 119.382C65.4308 120.641 66.8203 121 67.8281 121V113ZM71.4531 116.543L71.6406 50.5895L63.6406 50.5668L63.4531 116.52L71.4531 116.543ZM71.6406 50.5781C71.6406 51.0697 71.515 52.1731 70.5628 53.1253C69.6106 54.0775 68.5072 54.2031 68.0156 54.2031V46.2031C67.274 46.2031 65.9832 46.3912 64.9059 47.4684C63.8287 48.5457 63.6406 49.8365 63.6406 50.5781H71.6406ZM68.0156 54.2031H87.4219V46.2031H68.0156V54.2031ZM87.4219 54.2031C90.2089 54.2031 92.6999 54.872 94.9758 56.1935L98.9929 49.2752C95.4564 47.2217 91.5724 46.2031 87.4219 46.2031V54.2031ZM94.9758 56.1935C97.3082 57.5478 99.1313 59.3381 100.499 61.6003L107.345 57.4622C105.275 54.0369 102.473 51.296 98.9929 49.2752L94.9758 56.1935ZM100.515 61.6276C101.848 63.7928 102.547 66.2753 102.547 69.1875H110.547C110.547 64.9122 109.496 60.9572 107.329 57.4349L100.515 61.6276ZM102.547 69.1875C102.547 71.1207 102.251 72.7585 101.726 74.1513L109.212 76.9737C110.124 74.554 110.547 71.9418 110.547 69.1875H102.547ZM101.726 74.1513C101.106 75.795 100.423 77.0612 99.7192 78.0152L106.156 82.766C107.389 81.095 108.394 79.1425 109.212 76.9737L101.726 74.1513ZM99.6826 78.0657C98.8455 79.2376 98.2336 79.875 97.8606 80.1734L102.858 86.4204C104.048 85.4687 105.155 84.1687 106.192 82.7156L99.6826 78.0657ZM97.3898 85.9767C100.194 89.0839 101.562 92.6442 101.562 96.8438H109.562C109.562 90.6683 107.462 85.1973 103.329 80.617L97.3898 85.9767ZM101.563 96.8628L101.656 116.55L109.656 116.512L109.562 96.8247L101.563 96.8628ZM101.656 116.531C101.656 116.071 101.774 114.991 102.711 114.054C103.647 113.118 104.727 113 105.188 113V121C105.96 121 107.275 120.804 108.367 119.711C109.46 118.618 109.656 117.304 109.656 116.531H101.656ZM105.188 113H94.3125V121H105.188V113ZM94.3125 113C94.5721 113 95.4962 113.028 96.4313 113.73C97.5827 114.593 97.9375 115.837 97.9375 116.719H89.9375C89.9375 117.788 90.3548 119.172 91.6312 120.13C92.6913 120.925 93.8029 121 94.3125 121V113ZM97.9375 116.719V96.8438H89.9375V116.719H97.9375ZM97.9375 96.8438C97.9375 93.4815 96.7135 90.4912 94.3813 88.0692L88.6187 93.6183C89.5365 94.5713 89.9375 95.581 89.9375 96.8438H97.9375ZM94.3813 88.0692C91.9906 85.5866 88.9451 84.3125 85.5 84.3125V92.3125C86.8049 92.3125 87.7594 92.7259 88.6187 93.6183L94.3813 88.0692ZM85.5 84.3125H79.1719V92.3125H85.5V84.3125ZM75.1719 88.2992L75.0781 116.518L83.0781 116.545L83.1719 88.3258L75.1719 88.2992ZM75.0781 116.531C75.0781 116.26 75.1149 115.317 75.8609 114.384C76.7433 113.281 77.9453 113 78.7031 113V121C79.7109 121 81.1005 120.641 82.1079 119.382C82.9789 118.293 83.0781 117.115 83.0781 116.531H75.0781ZM87.4219 57.6875H79.1719V65.6875H87.4219V57.6875ZM75.1719 61.6875V76.7812H83.1719V61.6875H75.1719ZM79.1719 80.7812H87.4219V72.7812H79.1719V80.7812ZM87.4219 80.7812C90.5075 80.7812 93.2283 79.587 95.4408 77.4649L89.903 71.6914C89.053 72.5067 88.2738 72.7812 87.4219 72.7812V80.7812ZM95.4115 77.4926C97.7699 75.2757 99.0156 72.4277 99.0156 69.1875H91.0156C91.0156 70.1973 90.6988 70.943 89.9322 71.6636L95.4115 77.4926ZM99.0156 69.1875C99.0156 66.041 97.8037 63.2723 95.5641 61.0795L89.9671 66.7955C90.7276 67.5402 91.0156 68.2715 91.0156 69.1875H99.0156ZM95.5941 61.1091C93.3678 58.8829 90.5786 57.6875 87.4219 57.6875V65.6875C88.3901 65.6875 89.1634 65.9921 89.9372 66.7659L95.5941 61.1091ZM121.922 115.312L119.825 118.719L119.834 118.724L119.842 118.729L121.922 115.312ZM115.125 108.281L111.632 110.23L111.644 110.252L111.657 110.274L115.125 108.281ZM112.641 98.3906L108.641 98.3781V98.3906H112.641ZM112.734 68.4375L116.734 68.45V68.4375H112.734ZM115.172 58.7812L118.654 60.7495L118.659 60.7414L118.663 60.7334L115.172 58.7812ZM121.875 51.7969L123.971 55.2035L123.982 55.1971L121.875 51.7969ZM140.953 51.7031L138.85 55.1058L138.859 55.1111L138.867 55.1163L140.953 51.7031ZM147.656 58.6875L144.172 60.6521L144.184 60.6741L144.197 60.696L147.656 58.6875ZM126.422 104.156L123.473 106.859L123.487 106.875L123.502 106.89L126.422 104.156ZM136.594 103.922L139.647 106.506L139.659 106.491L139.671 106.477L136.594 103.922ZM147.75 108.234L151.202 110.254L151.215 110.233L151.227 110.211L147.75 108.234ZM140.953 115.312L143.066 118.709L143.08 118.7L143.093 118.692L140.953 115.312ZM131.438 113.938C128.679 113.938 126.23 113.252 124.002 111.896L119.842 118.729C123.364 120.873 127.259 121.938 131.438 121.938V113.938ZM124.018 111.906C121.751 110.511 119.954 108.657 118.593 106.289L111.657 110.274C113.671 113.781 116.405 116.614 119.825 118.719L124.018 111.906ZM118.618 106.332C117.316 103.999 116.641 101.38 116.641 98.3906H108.641C108.641 102.651 109.621 106.626 111.632 110.23L118.618 106.332ZM116.641 98.4031L116.734 68.45L108.734 68.425L108.641 98.3781L116.641 98.4031ZM116.734 68.4375C116.734 65.5088 117.395 62.9771 118.654 60.7495L111.69 56.813C109.699 60.3354 108.734 64.2412 108.734 68.4375H116.734ZM118.663 60.7334C119.954 58.4248 121.707 56.5967 123.971 55.2035L119.779 48.3902C116.355 50.497 113.64 53.3252 111.681 56.8291L118.663 60.7334ZM123.982 55.1971C126.201 53.8221 128.655 53.125 131.438 53.125V45.125C127.22 45.125 123.299 46.2092 119.768 48.3966L123.982 55.1971ZM131.438 53.125C134.326 53.125 136.757 53.8123 138.85 55.1058L143.056 48.3004C139.587 46.1565 135.674 45.125 131.438 45.125V53.125ZM138.867 55.1163C141.084 56.4708 142.843 58.2944 144.172 60.6521L151.141 56.7229C149.157 53.2056 146.447 50.3729 143.039 48.29L138.867 55.1163ZM144.197 60.696C145.506 62.9498 146.188 65.4986 146.188 68.4375H154.188C154.188 64.1889 153.182 60.2377 151.115 56.679L144.197 60.696ZM146.188 68.4375V72.8438H154.188V68.4375H146.188ZM146.188 72.8438C146.188 72.3522 146.313 71.2488 147.265 70.2966C148.218 69.3444 149.321 69.2188 149.812 69.2188V77.2188C150.554 77.2188 151.845 77.0306 152.922 75.9534C153.999 74.8762 154.188 73.5853 154.188 72.8438H146.188ZM149.812 69.2188H139.031V77.2188H149.812V69.2188ZM139.031 69.2188C139.523 69.2188 140.626 69.3444 141.578 70.2966C142.531 71.2488 142.656 72.3522 142.656 72.8438H134.656C134.656 73.5853 134.844 74.8762 135.922 75.9534C136.999 77.0306 138.29 77.2188 139.031 77.2188V69.2188ZM142.656 72.8438V68.4375H134.656V72.8438H142.656ZM142.656 68.4375C142.656 65.3612 141.627 62.5718 139.57 60.2806L133.618 65.6256C134.31 66.3969 134.656 67.2638 134.656 68.4375H142.656ZM139.57 60.2806C137.434 57.9024 134.633 56.6562 131.438 56.6562V64.6562C132.367 64.6562 133.003 64.9414 133.618 65.6256L139.57 60.2806ZM131.438 56.6562C128.135 56.6562 125.131 57.8507 123.033 60.5399L129.342 65.4601C129.681 65.0243 130.178 64.6562 131.438 64.6562V56.6562ZM123.033 60.5399C121.243 62.8355 120.359 65.5228 120.359 68.4375H128.359C128.359 67.2272 128.695 66.2895 129.342 65.4601L123.033 60.5399ZM120.359 68.4375V98.3906H128.359V68.4375H120.359ZM120.359 98.3906C120.359 101.573 121.32 104.51 123.473 106.859L129.37 101.453C128.774 100.803 128.359 99.8961 128.359 98.3906H120.359ZM123.502 106.89C125.614 109.146 128.335 110.359 131.438 110.359V102.359C130.603 102.359 129.979 102.104 129.342 101.423L123.502 106.89ZM131.438 110.359C134.719 110.359 137.54 108.996 139.647 106.506L133.54 101.338C132.897 102.098 132.281 102.359 131.438 102.359V110.359ZM139.671 106.477C141.604 104.149 142.656 101.414 142.656 98.3906H134.656C134.656 99.4302 134.334 100.382 133.516 101.367L139.671 106.477ZM142.656 98.3906V93.9375H134.656V98.3906H142.656ZM142.656 93.9375C142.656 94.4291 142.531 95.5325 141.578 96.4847C140.626 97.4369 139.523 97.5625 139.031 97.5625V89.5625C138.29 89.5625 136.999 89.7506 135.922 90.8278C134.844 91.905 134.656 93.1959 134.656 93.9375H142.656ZM139.031 97.5625H149.906V89.5625H139.031V97.5625ZM149.906 97.5625C149.415 97.5625 148.311 97.4369 147.359 96.4847C146.407 95.5325 146.281 94.4291 146.281 93.9375H154.281C154.281 93.1959 154.093 91.905 153.016 90.8278C151.939 89.7506 150.648 89.5625 149.906 89.5625V97.5625ZM146.281 93.9375V98.3906H154.281V93.9375H146.281ZM146.281 98.3906C146.281 101.329 145.599 103.923 144.273 106.258L151.227 110.211C153.276 106.608 154.281 102.64 154.281 98.3906H146.281ZM144.298 106.214C142.894 108.613 141.073 110.502 138.813 111.933L143.093 118.692C146.458 116.561 149.169 113.731 151.202 110.254L144.298 106.214ZM138.84 111.916C136.704 113.245 134.273 113.938 131.438 113.938V121.938C135.664 121.938 139.577 120.88 143.066 118.709L138.84 111.916ZM157.266 116.531L153.266 116.526V116.531H157.266ZM157.359 50.6719L161.359 50.6776V50.6719H157.359ZM168.984 50.6719L172.984 50.6788V50.6719H168.984ZM168.891 105.188L164.891 105.181L164.884 109.188H168.891V105.188ZM188.672 113H157.641V121H188.672V113ZM157.641 113C158.398 113 159.6 113.281 160.483 114.384C161.229 115.317 161.266 116.26 161.266 116.531H153.266C153.266 117.115 153.365 118.293 154.236 119.382C155.243 120.641 156.633 121 157.641 121V113ZM161.266 116.537L161.359 50.6776L153.359 50.6662L153.266 116.526L161.266 116.537ZM161.359 50.6719C161.359 51.1322 161.242 52.2121 160.305 53.1487C159.368 54.0853 158.288 54.2031 157.828 54.2031V46.2031C157.055 46.2031 155.741 46.399 154.648 47.4919C153.555 48.5847 153.359 49.899 153.359 50.6719H161.359ZM157.828 54.2031H168.516V46.2031H157.828V54.2031ZM168.516 54.2031C168.055 54.2031 166.975 54.0853 166.039 53.1487C165.102 52.2121 164.984 51.1322 164.984 50.6719H172.984C172.984 49.899 172.788 48.5847 171.696 47.4919C170.603 46.399 169.288 46.2031 168.516 46.2031V54.2031ZM164.984 50.665L164.891 105.181L172.891 105.194L172.984 50.6788L164.984 50.665ZM168.891 109.188H188.672V101.188H168.891V109.188ZM188.672 109.188C188.212 109.188 187.132 109.07 186.195 108.133C185.258 107.197 185.141 106.117 185.141 105.656H193.141C193.141 104.883 192.945 103.569 191.852 102.476C190.759 101.383 189.445 101.188 188.672 101.188V109.188ZM185.141 105.656V116.531H193.141V105.656H185.141ZM185.141 116.531C185.141 116.071 185.258 114.991 186.195 114.054C187.132 113.118 188.212 113 188.672 113V121C189.445 121 190.759 120.804 191.852 119.711C192.945 118.618 193.141 117.304 193.141 116.531H185.141ZM195.422 116.531L191.422 116.526V116.531H195.422ZM195.516 50.5781L199.516 50.5838V50.5781H195.516ZM207.047 61.7812V57.7812H203.047V61.7812H207.047ZM207.047 76.7812H203.047V80.7812H207.047V76.7812ZM227.109 77.1562H223.109V77.1735L223.11 77.1907L227.109 77.1562ZM227.203 88.0312H231.203V88.014L231.203 87.9968L227.203 88.0312ZM207.047 88.4062V84.4062H203.047V88.4062H207.047ZM207.047 105.188H203.047V109.188H207.047V105.188ZM226.828 113H195.797V121H226.828V113ZM195.797 113C196.555 113 197.757 113.281 198.639 114.384C199.385 115.317 199.422 116.26 199.422 116.531H191.422C191.422 117.115 191.521 118.293 192.392 119.382C193.4 120.641 194.789 121 195.797 121V113ZM199.422 116.537L199.516 50.5838L191.516 50.5724L191.422 116.526L199.422 116.537ZM199.516 50.5781C199.516 51.0697 199.39 52.1731 198.438 53.1253C197.486 54.0775 196.382 54.2031 195.891 54.2031V46.2031C195.149 46.2031 193.858 46.3912 192.781 47.4684C191.704 48.5457 191.516 49.8365 191.516 50.5781H199.516ZM195.891 54.2031H226.734V46.2031H195.891V54.2031ZM226.734 54.2031C225.977 54.2031 224.775 53.9221 223.892 52.8191C223.146 51.8865 223.109 50.943 223.109 50.6719H231.109C231.109 50.0883 231.01 48.9103 230.139 47.8215C229.132 46.5623 227.742 46.2031 226.734 46.2031V54.2031ZM223.109 50.6719V61.4062H231.109V50.6719H223.109ZM223.109 61.4062C223.109 60.9147 223.235 59.8113 224.187 58.8591C225.139 57.9069 226.243 57.7812 226.734 57.7812V65.7812C227.476 65.7812 228.767 65.5931 229.844 64.5159C230.921 63.4387 231.109 62.1478 231.109 61.4062H223.109ZM226.734 57.7812H207.047V65.7812H226.734V57.7812ZM203.047 61.7812V76.7812H211.047V61.7812H203.047ZM207.047 80.7812H226.734V72.7812H207.047V80.7812ZM226.734 80.7812C226.243 80.7812 225.139 80.6556 224.187 79.7034C223.235 78.7512 223.109 77.6478 223.109 77.1562H231.109C231.109 76.4147 230.921 75.1238 229.844 74.0466C228.767 72.9694 227.476 72.7812 226.734 72.7812V80.7812ZM223.11 77.1907L223.203 88.0657L231.203 87.9968L231.109 77.1218L223.11 77.1907ZM223.203 88.0312C223.203 87.5397 223.329 86.4363 224.281 85.4841C225.233 84.5319 226.337 84.4062 226.828 84.4062V92.4062C227.57 92.4062 228.861 92.2181 229.938 91.1409C231.015 90.0637 231.203 88.7728 231.203 88.0312H223.203ZM226.828 84.4062H207.047V92.4062H226.828V84.4062ZM203.047 88.4062V105.188H211.047V88.4062H203.047ZM207.047 109.188H226.828V101.188H207.047V109.188ZM226.828 109.188C226.07 109.188 224.868 108.906 223.986 107.803C223.24 106.871 223.203 105.927 223.203 105.656H231.203C231.203 105.073 231.104 103.895 230.233 102.806C229.225 101.547 227.836 101.188 226.828 101.188V109.188ZM223.203 105.656V116.625H231.203V105.656H223.203ZM223.203 116.625C223.203 116.133 223.329 115.03 224.281 114.078C225.233 113.126 226.337 113 226.828 113V121C227.57 121 228.861 120.812 229.938 119.735C231.015 118.657 231.203 117.367 231.203 116.625H223.203Z" fill="#155E75" mask="url(#path-2-outside-1_309_85)"/>
<mask id="path-4-outside-2_309_85" maskUnits="userSpaceOnUse" x="38" y="133" width="234" height="77" fill="black">
<rect fill="white" x="38" y="133" width="234" height="77"/>
<path d="M61.4688 205.938C58 205.938 54.8281 205.062 51.9531 203.312C49.1094 201.562 46.8438 199.219 45.1562 196.281C43.5 193.312 42.6719 190.016 42.6719 186.391L42.7656 156.438C42.7656 152.875 43.5781 149.656 45.2031 146.781C46.8281 143.875 49.0625 141.547 51.9062 139.797C54.7812 138.016 57.9688 137.125 61.4688 137.125C65.0312 137.125 68.2031 137.984 70.9844 139.703C73.7969 141.422 76.0312 143.75 77.6875 146.688C79.375 149.594 80.2188 152.844 80.2188 156.438V160.844C80.2188 161.094 80.0938 161.219 79.8438 161.219H69.0625C68.8125 161.219 68.6875 161.094 68.6875 160.844V156.438C68.6875 154.312 68 152.484 66.625 150.953C65.25 149.422 63.5312 148.656 61.4688 148.656C59.1875 148.656 57.4375 149.438 56.2188 151C55 152.562 54.3906 154.375 54.3906 156.438V186.391C54.3906 188.734 55.0781 190.656 56.4531 192.156C57.8281 193.625 59.5 194.359 61.4688 194.359C63.5312 194.359 65.25 193.547 66.625 191.922C68 190.266 68.6875 188.422 68.6875 186.391V181.938C68.6875 181.688 68.8125 181.562 69.0625 181.562H79.9375C80.1875 181.562 80.3125 181.688 80.3125 181.938V186.391C80.3125 189.984 79.4688 193.266 77.7812 196.234C76.0625 199.172 73.7969 201.531 70.9844 203.312C68.1719 205.062 65 205.938 61.4688 205.938ZM98.6406 205H87.7656C87.4531 205 87.2969 204.844 87.2969 204.531L87.3906 138.578C87.3906 138.328 87.5156 138.203 87.7656 138.203H98.5469C98.7969 138.203 98.9219 138.328 98.9219 138.578L99.0156 204.531C99.0156 204.844 98.8906 205 98.6406 205ZM118.703 205H107.828C107.578 205 107.453 204.844 107.453 204.531L107.641 138.578C107.641 138.328 107.766 138.203 108.016 138.203H127.422C130.891 138.203 134.078 139.047 136.984 140.734C139.891 142.422 142.203 144.688 143.922 147.531C145.672 150.375 146.547 153.594 146.547 157.188C146.547 159.531 146.188 161.656 145.469 163.562C144.75 165.469 143.906 167.078 142.938 168.391C142 169.703 141.141 170.672 140.359 171.297C143.828 175.141 145.562 179.656 145.562 184.844L145.656 204.531C145.656 204.844 145.5 205 145.188 205H134.312C134.062 205 133.938 204.906 133.938 204.719V184.844C133.938 182.531 133.125 180.531 131.5 178.844C129.875 177.156 127.875 176.312 125.5 176.312H119.172L119.078 204.531C119.078 204.844 118.953 205 118.703 205ZM127.422 149.688H119.172V164.781H127.422C129.391 164.781 131.141 164.047 132.672 162.578C134.234 161.109 135.016 159.312 135.016 157.188C135.016 155.156 134.266 153.406 132.766 151.938C131.266 150.438 129.484 149.688 127.422 149.688ZM171.438 205.938C167.969 205.938 164.797 205.062 161.922 203.312C159.078 201.562 156.812 199.219 155.125 196.281C153.469 193.312 152.641 190.016 152.641 186.391L152.734 156.438C152.734 152.875 153.547 149.656 155.172 146.781C156.797 143.875 159.031 141.547 161.875 139.797C164.75 138.016 167.938 137.125 171.438 137.125C175 137.125 178.172 137.984 180.953 139.703C183.766 141.422 186 143.75 187.656 146.688C189.344 149.594 190.188 152.844 190.188 156.438V160.844C190.188 161.094 190.062 161.219 189.812 161.219H179.031C178.781 161.219 178.656 161.094 178.656 160.844V156.438C178.656 154.312 177.969 152.484 176.594 150.953C175.219 149.422 173.5 148.656 171.438 148.656C169.156 148.656 167.406 149.438 166.188 151C164.969 152.562 164.359 154.375 164.359 156.438V186.391C164.359 188.734 165.047 190.656 166.422 192.156C167.797 193.625 169.469 194.359 171.438 194.359C173.5 194.359 175.219 193.547 176.594 191.922C177.969 190.266 178.656 188.422 178.656 186.391V181.938C178.656 181.688 178.781 181.562 179.031 181.562H189.906C190.156 181.562 190.281 181.688 190.281 181.938V186.391C190.281 189.984 189.438 193.266 187.75 196.234C186.031 199.172 183.766 201.531 180.953 203.312C178.141 205.062 174.969 205.938 171.438 205.938ZM228.672 205H197.641C197.391 205 197.266 204.844 197.266 204.531L197.359 138.672C197.359 138.359 197.516 138.203 197.828 138.203H208.516C208.828 138.203 208.984 138.359 208.984 138.672L208.891 193.188H228.672C228.984 193.188 229.141 193.344 229.141 193.656V204.531C229.141 204.844 228.984 205 228.672 205ZM266.828 205H235.797C235.547 205 235.422 204.844 235.422 204.531L235.516 138.578C235.516 138.328 235.641 138.203 235.891 138.203H266.734C266.984 138.203 267.109 138.359 267.109 138.672V149.406C267.109 149.656 266.984 149.781 266.734 149.781H247.047V164.781H266.734C266.984 164.781 267.109 164.906 267.109 165.156L267.203 176.031C267.203 176.281 267.078 176.406 266.828 176.406H247.047V193.188H266.828C267.078 193.188 267.203 193.344 267.203 193.656V204.625C267.203 204.875 267.078 205 266.828 205Z"/>
</mask>
<path d="M61.4688 205.938C58 205.938 54.8281 205.062 51.9531 203.312C49.1094 201.562 46.8438 199.219 45.1562 196.281C43.5 193.312 42.6719 190.016 42.6719 186.391L42.7656 156.438C42.7656 152.875 43.5781 149.656 45.2031 146.781C46.8281 143.875 49.0625 141.547 51.9062 139.797C54.7812 138.016 57.9688 137.125 61.4688 137.125C65.0312 137.125 68.2031 137.984 70.9844 139.703C73.7969 141.422 76.0312 143.75 77.6875 146.688C79.375 149.594 80.2188 152.844 80.2188 156.438V160.844C80.2188 161.094 80.0938 161.219 79.8438 161.219H69.0625C68.8125 161.219 68.6875 161.094 68.6875 160.844V156.438C68.6875 154.312 68 152.484 66.625 150.953C65.25 149.422 63.5312 148.656 61.4688 148.656C59.1875 148.656 57.4375 149.438 56.2188 151C55 152.562 54.3906 154.375 54.3906 156.438V186.391C54.3906 188.734 55.0781 190.656 56.4531 192.156C57.8281 193.625 59.5 194.359 61.4688 194.359C63.5312 194.359 65.25 193.547 66.625 191.922C68 190.266 68.6875 188.422 68.6875 186.391V181.938C68.6875 181.688 68.8125 181.562 69.0625 181.562H79.9375C80.1875 181.562 80.3125 181.688 80.3125 181.938V186.391C80.3125 189.984 79.4688 193.266 77.7812 196.234C76.0625 199.172 73.7969 201.531 70.9844 203.312C68.1719 205.062 65 205.938 61.4688 205.938ZM98.6406 205H87.7656C87.4531 205 87.2969 204.844 87.2969 204.531L87.3906 138.578C87.3906 138.328 87.5156 138.203 87.7656 138.203H98.5469C98.7969 138.203 98.9219 138.328 98.9219 138.578L99.0156 204.531C99.0156 204.844 98.8906 205 98.6406 205ZM118.703 205H107.828C107.578 205 107.453 204.844 107.453 204.531L107.641 138.578C107.641 138.328 107.766 138.203 108.016 138.203H127.422C130.891 138.203 134.078 139.047 136.984 140.734C139.891 142.422 142.203 144.688 143.922 147.531C145.672 150.375 146.547 153.594 146.547 157.188C146.547 159.531 146.188 161.656 145.469 163.562C144.75 165.469 143.906 167.078 142.938 168.391C142 169.703 141.141 170.672 140.359 171.297C143.828 175.141 145.562 179.656 145.562 184.844L145.656 204.531C145.656 204.844 145.5 205 145.188 205H134.312C134.062 205 133.938 204.906 133.938 204.719V184.844C133.938 182.531 133.125 180.531 131.5 178.844C129.875 177.156 127.875 176.312 125.5 176.312H119.172L119.078 204.531C119.078 204.844 118.953 205 118.703 205ZM127.422 149.688H119.172V164.781H127.422C129.391 164.781 131.141 164.047 132.672 162.578C134.234 161.109 135.016 159.312 135.016 157.188C135.016 155.156 134.266 153.406 132.766 151.938C131.266 150.438 129.484 149.688 127.422 149.688ZM171.438 205.938C167.969 205.938 164.797 205.062 161.922 203.312C159.078 201.562 156.812 199.219 155.125 196.281C153.469 193.312 152.641 190.016 152.641 186.391L152.734 156.438C152.734 152.875 153.547 149.656 155.172 146.781C156.797 143.875 159.031 141.547 161.875 139.797C164.75 138.016 167.938 137.125 171.438 137.125C175 137.125 178.172 137.984 180.953 139.703C183.766 141.422 186 143.75 187.656 146.688C189.344 149.594 190.188 152.844 190.188 156.438V160.844C190.188 161.094 190.062 161.219 189.812 161.219H179.031C178.781 161.219 178.656 161.094 178.656 160.844V156.438C178.656 154.312 177.969 152.484 176.594 150.953C175.219 149.422 173.5 148.656 171.438 148.656C169.156 148.656 167.406 149.438 166.188 151C164.969 152.562 164.359 154.375 164.359 156.438V186.391C164.359 188.734 165.047 190.656 166.422 192.156C167.797 193.625 169.469 194.359 171.438 194.359C173.5 194.359 175.219 193.547 176.594 191.922C177.969 190.266 178.656 188.422 178.656 186.391V181.938C178.656 181.688 178.781 181.562 179.031 181.562H189.906C190.156 181.562 190.281 181.688 190.281 181.938V186.391C190.281 189.984 189.438 193.266 187.75 196.234C186.031 199.172 183.766 201.531 180.953 203.312C178.141 205.062 174.969 205.938 171.438 205.938ZM228.672 205H197.641C197.391 205 197.266 204.844 197.266 204.531L197.359 138.672C197.359 138.359 197.516 138.203 197.828 138.203H208.516C208.828 138.203 208.984 138.359 208.984 138.672L208.891 193.188H228.672C228.984 193.188 229.141 193.344 229.141 193.656V204.531C229.141 204.844 228.984 205 228.672 205ZM266.828 205H235.797C235.547 205 235.422 204.844 235.422 204.531L235.516 138.578C235.516 138.328 235.641 138.203 235.891 138.203H266.734C266.984 138.203 267.109 138.359 267.109 138.672V149.406C267.109 149.656 266.984 149.781 266.734 149.781H247.047V164.781H266.734C266.984 164.781 267.109 164.906 267.109 165.156L267.203 176.031C267.203 176.281 267.078 176.406 266.828 176.406H247.047V193.188H266.828C267.078 193.188 267.203 193.344 267.203 193.656V204.625C267.203 204.875 267.078 205 266.828 205Z" fill="white"/>
<path d="M51.9531 203.312L49.8567 206.719L49.865 206.724L49.8733 206.729L51.9531 203.312ZM45.1562 196.281L41.6631 198.23L41.6753 198.252L41.6878 198.274L45.1562 196.281ZM42.6719 186.391L38.6719 186.378V186.391H42.6719ZM42.7656 156.438L46.7656 156.45V156.438H42.7656ZM45.2031 146.781L48.6854 148.749L48.6899 148.741L48.6944 148.733L45.2031 146.781ZM51.9062 139.797L54.0026 143.204L54.0129 143.197L51.9062 139.797ZM70.9844 139.703L68.8816 143.106L68.8901 143.111L68.8986 143.116L70.9844 139.703ZM77.6875 146.688L74.2032 148.652L74.2156 148.674L74.2283 148.696L77.6875 146.688ZM56.4531 192.156L53.5045 194.859L53.5187 194.875L53.533 194.89L56.4531 192.156ZM66.625 191.922L69.6785 194.506L69.6907 194.491L69.7026 194.477L66.625 191.922ZM77.7812 196.234L81.2337 198.254L81.2463 198.233L81.2587 198.211L77.7812 196.234ZM70.9844 203.312L73.0976 206.709L73.1111 206.7L73.1246 206.692L70.9844 203.312ZM61.4688 201.938C58.71 201.938 56.2614 201.252 54.0329 199.896L49.8733 206.729C53.3948 208.873 57.29 209.938 61.4688 209.938V201.938ZM54.0495 199.906C51.7824 198.511 49.9849 196.657 48.6247 194.289L41.6878 198.274C43.7026 201.781 46.4363 204.614 49.8567 206.719L54.0495 199.906ZM48.6494 194.332C47.3476 191.999 46.6719 189.38 46.6719 186.391H38.6719C38.6719 190.651 39.6524 194.626 41.6631 198.23L48.6494 194.332ZM46.6719 186.403L46.7656 156.45L38.7656 156.425L38.6719 186.378L46.6719 186.403ZM46.7656 156.438C46.7656 153.509 47.4263 150.977 48.6854 148.749L41.7209 144.813C39.73 148.335 38.7656 152.241 38.7656 156.438H46.7656ZM48.6944 148.733C49.9852 146.425 51.7387 144.597 54.0026 143.204L49.8099 136.39C46.3863 138.497 43.671 141.325 41.7118 144.829L48.6944 148.733ZM54.0129 143.197C56.2324 141.822 58.6858 141.125 61.4688 141.125V133.125C57.2517 133.125 53.3301 134.209 49.7996 136.397L54.0129 143.197ZM61.4688 141.125C64.3574 141.125 66.7884 141.812 68.8816 143.106L73.0872 136.3C69.6178 134.156 65.7051 133.125 61.4688 133.125V141.125ZM68.8986 143.116C71.1151 144.471 72.8739 146.294 74.2032 148.652L81.1718 144.723C79.1886 141.206 76.4786 138.373 73.0702 136.29L68.8986 143.116ZM74.2283 148.696C75.537 150.95 76.2188 153.499 76.2188 156.438H84.2188C84.2188 152.189 83.213 148.238 81.1467 144.679L74.2283 148.696ZM76.2188 156.438V160.844H84.2188V156.438H76.2188ZM76.2188 160.844C76.2188 160.352 76.3444 159.249 77.2966 158.297C78.2488 157.344 79.3522 157.219 79.8438 157.219V165.219C80.5853 165.219 81.8762 165.031 82.9534 163.953C84.0306 162.876 84.2188 161.585 84.2188 160.844H76.2188ZM79.8438 157.219H69.0625V165.219H79.8438V157.219ZM69.0625 157.219C69.5541 157.219 70.6575 157.344 71.6097 158.297C72.5619 159.249 72.6875 160.352 72.6875 160.844H64.6875C64.6875 161.585 64.8756 162.876 65.9528 163.953C67.03 165.031 68.3209 165.219 69.0625 165.219V157.219ZM72.6875 160.844V156.438H64.6875V160.844H72.6875ZM72.6875 156.438C72.6875 153.361 71.6586 150.572 69.6012 148.281L63.6488 153.626C64.3414 154.397 64.6875 155.264 64.6875 156.438H72.6875ZM69.6012 148.281C67.4656 145.902 64.6639 144.656 61.4688 144.656V152.656C62.3986 152.656 63.0344 152.941 63.6488 153.626L69.6012 148.281ZM61.4688 144.656C58.1658 144.656 55.1623 145.851 53.0647 148.54L59.3728 153.46C59.7127 153.024 60.2092 152.656 61.4688 152.656V144.656ZM53.0647 148.54C51.2741 150.836 50.3906 153.523 50.3906 156.438H58.3906C58.3906 155.227 58.7259 154.289 59.3728 153.46L53.0647 148.54ZM50.3906 156.438V186.391H58.3906V156.438H50.3906ZM50.3906 186.391C50.3906 189.573 51.3509 192.51 53.5045 194.859L59.4017 189.453C58.8053 188.803 58.3906 187.896 58.3906 186.391H50.3906ZM53.533 194.89C55.6455 197.146 58.3662 198.359 61.4688 198.359V190.359C60.6338 190.359 60.0107 190.104 59.3732 189.423L53.533 194.89ZM61.4688 198.359C64.7506 198.359 67.5716 196.996 69.6785 194.506L63.5715 189.338C62.9284 190.098 62.3119 190.359 61.4688 190.359V198.359ZM69.7026 194.477C71.6352 192.149 72.6875 189.414 72.6875 186.391H64.6875C64.6875 187.43 64.3648 188.382 63.5474 189.367L69.7026 194.477ZM72.6875 186.391V181.938H64.6875V186.391H72.6875ZM72.6875 181.938C72.6875 182.429 72.5619 183.532 71.6097 184.485C70.6575 185.437 69.5541 185.562 69.0625 185.562V177.562C68.3209 177.562 67.03 177.751 65.9528 178.828C64.8756 179.905 64.6875 181.196 64.6875 181.938H72.6875ZM69.0625 185.562H79.9375V177.562H69.0625V185.562ZM79.9375 185.562C79.4459 185.562 78.3425 185.437 77.3903 184.485C76.4381 183.532 76.3125 182.429 76.3125 181.938H84.3125C84.3125 181.196 84.1244 179.905 83.0472 178.828C81.97 177.751 80.6791 177.562 79.9375 177.562V185.562ZM76.3125 181.938V186.391H84.3125V181.938H76.3125ZM76.3125 186.391C76.3125 189.329 75.6306 191.923 74.3038 194.258L81.2587 198.211C83.3069 194.608 84.3125 190.64 84.3125 186.391H76.3125ZM74.3288 194.214C72.9252 196.613 71.1046 198.502 68.8442 199.933L73.1246 206.692C76.4891 204.561 79.1998 201.731 81.2337 198.254L74.3288 194.214ZM68.8712 199.916C66.7352 201.245 64.3045 201.938 61.4688 201.938V209.938C65.6955 209.938 69.6086 208.88 73.0976 206.709L68.8712 199.916ZM87.2969 204.531L83.2969 204.526V204.531H87.2969ZM87.3906 138.578L91.3906 138.584V138.578H87.3906ZM98.9219 138.578L94.9219 138.578L94.9219 138.584L98.9219 138.578ZM99.0156 204.531L103.016 204.531L103.016 204.526L99.0156 204.531ZM98.6406 201H87.7656V209H98.6406V201ZM87.7656 201C88.226 201 89.3059 201.118 90.2425 202.054C91.1791 202.991 91.2969 204.071 91.2969 204.531H83.2969C83.2969 205.304 83.4928 206.618 84.5856 207.711C85.6785 208.804 86.9928 209 87.7656 209V201ZM91.2969 204.537L91.3906 138.584L83.3906 138.572L83.2969 204.526L91.2969 204.537ZM91.3906 138.578C91.3906 139.07 91.265 140.173 90.3128 141.125C89.3606 142.078 88.2572 142.203 87.7656 142.203V134.203C87.024 134.203 85.7332 134.391 84.6559 135.468C83.5787 136.546 83.3906 137.837 83.3906 138.578H91.3906ZM87.7656 142.203H98.5469V134.203H87.7656V142.203ZM98.5469 142.203C98.0553 142.203 96.9519 142.078 95.9997 141.125C95.0475 140.173 94.9219 139.07 94.9219 138.578H102.922C102.922 137.837 102.734 136.546 101.657 135.468C100.579 134.391 99.2885 134.203 98.5469 134.203V142.203ZM94.9219 138.584L95.0156 204.537L103.016 204.526L102.922 138.572L94.9219 138.584ZM95.0156 204.531C95.0156 204.26 95.0524 203.317 95.7984 202.384C96.6808 201.281 97.8828 201 98.6406 201V209C99.6484 209 101.038 208.641 102.045 207.382C102.916 206.293 103.016 205.115 103.016 204.531H95.0156ZM107.453 204.531L103.453 204.52V204.531H107.453ZM107.641 138.578L111.641 138.589V138.578H107.641ZM143.922 147.531L140.499 149.6L140.507 149.614L140.515 149.628L143.922 147.531ZM142.938 168.391L139.719 166.015L139.701 166.04L139.683 166.066L142.938 168.391ZM140.359 171.297L137.861 168.173L134.546 170.825L137.39 173.977L140.359 171.297ZM145.562 184.844H141.562V184.853L141.563 184.863L145.562 184.844ZM145.656 204.531H149.656V204.522L149.656 204.512L145.656 204.531ZM119.172 176.312V172.312H115.185L115.172 176.299L119.172 176.312ZM119.078 204.531L115.078 204.518V204.531H119.078ZM119.172 149.688V145.688H115.172V149.688H119.172ZM119.172 164.781H115.172V168.781H119.172V164.781ZM132.672 162.578L129.932 159.664L129.918 159.677L129.903 159.691L132.672 162.578ZM132.766 151.938L129.937 154.766L129.952 154.781L129.967 154.796L132.766 151.938ZM118.703 201H107.828V209H118.703V201ZM107.828 201C108.586 201 109.788 201.281 110.67 202.384C111.416 203.317 111.453 204.26 111.453 204.531H103.453C103.453 205.115 103.552 206.293 104.423 207.382C105.431 208.641 106.82 209 107.828 209V201ZM111.453 204.543L111.641 138.589L103.641 138.567L103.453 204.52L111.453 204.543ZM111.641 138.578C111.641 139.07 111.515 140.173 110.563 141.125C109.611 142.078 108.507 142.203 108.016 142.203V134.203C107.274 134.203 105.983 134.391 104.906 135.468C103.829 136.546 103.641 137.837 103.641 138.578H111.641ZM108.016 142.203H127.422V134.203H108.016V142.203ZM127.422 142.203C130.209 142.203 132.7 142.872 134.976 144.194L138.993 137.275C135.456 135.222 131.572 134.203 127.422 134.203V142.203ZM134.976 144.194C137.308 145.548 139.131 147.338 140.499 149.6L147.345 145.462C145.275 142.037 142.473 139.296 138.993 137.275L134.976 144.194ZM140.515 149.628C141.848 151.793 142.547 154.275 142.547 157.188H150.547C150.547 152.912 149.496 148.957 147.329 145.435L140.515 149.628ZM142.547 157.188C142.547 159.121 142.251 160.759 141.726 162.151L149.212 164.974C150.124 162.554 150.547 159.942 150.547 157.188H142.547ZM141.726 162.151C141.106 163.795 140.423 165.061 139.719 166.015L146.156 170.766C147.389 169.095 148.394 167.142 149.212 164.974L141.726 162.151ZM139.683 166.066C138.845 167.238 138.234 167.875 137.861 168.173L142.858 174.42C144.048 173.469 145.155 172.169 146.192 170.716L139.683 166.066ZM137.39 173.977C140.194 177.084 141.562 180.644 141.562 184.844H149.562C149.562 178.668 147.462 173.197 143.329 168.617L137.39 173.977ZM141.563 184.863L141.656 204.55L149.656 204.512L149.562 184.825L141.563 184.863ZM141.656 204.531C141.656 204.071 141.774 202.991 142.711 202.054C143.647 201.118 144.727 201 145.188 201V209C145.96 209 147.275 208.804 148.367 207.711C149.46 206.618 149.656 205.304 149.656 204.531H141.656ZM145.188 201H134.312V209H145.188V201ZM134.312 201C134.572 201 135.496 201.028 136.431 201.73C137.583 202.593 137.938 203.837 137.938 204.719H129.938C129.938 205.788 130.355 207.172 131.631 208.13C132.691 208.925 133.803 209 134.312 209V201ZM137.938 204.719V184.844H129.938V204.719H137.938ZM137.938 184.844C137.938 181.482 136.714 178.491 134.381 176.069L128.619 181.618C129.536 182.571 129.938 183.581 129.938 184.844H137.938ZM134.381 176.069C131.991 173.587 128.945 172.312 125.5 172.312V180.312C126.805 180.312 127.759 180.726 128.619 181.618L134.381 176.069ZM125.5 172.312H119.172V180.312H125.5V172.312ZM115.172 176.299L115.078 204.518L123.078 204.545L123.172 176.326L115.172 176.299ZM115.078 204.531C115.078 204.26 115.115 203.317 115.861 202.384C116.743 201.281 117.945 201 118.703 201V209C119.711 209 121.1 208.641 122.108 207.382C122.979 206.293 123.078 205.115 123.078 204.531H115.078ZM127.422 145.688H119.172V153.688H127.422V145.688ZM115.172 149.688V164.781H123.172V149.688H115.172ZM119.172 168.781H127.422V160.781H119.172V168.781ZM127.422 168.781C130.507 168.781 133.228 167.587 135.441 165.465L129.903 159.691C129.053 160.507 128.274 160.781 127.422 160.781V168.781ZM135.412 165.493C137.77 163.276 139.016 160.428 139.016 157.188H131.016C131.016 158.197 130.699 158.943 129.932 159.664L135.412 165.493ZM139.016 157.188C139.016 154.041 137.804 151.272 135.564 149.079L129.967 154.796C130.728 155.54 131.016 156.271 131.016 157.188H139.016ZM135.594 149.109C133.368 146.883 130.579 145.688 127.422 145.688V153.688C128.39 153.688 129.163 153.992 129.937 154.766L135.594 149.109ZM161.922 203.312L159.825 206.719L159.834 206.724L159.842 206.729L161.922 203.312ZM155.125 196.281L151.632 198.23L151.644 198.252L151.657 198.274L155.125 196.281ZM152.641 186.391L148.641 186.378V186.391H152.641ZM152.734 156.438L156.734 156.45V156.438H152.734ZM155.172 146.781L158.654 148.749L158.659 148.741L158.663 148.733L155.172 146.781ZM161.875 139.797L163.971 143.204L163.982 143.197L161.875 139.797ZM180.953 139.703L178.85 143.106L178.859 143.111L178.867 143.116L180.953 139.703ZM187.656 146.688L184.172 148.652L184.184 148.674L184.197 148.696L187.656 146.688ZM166.422 192.156L163.473 194.859L163.487 194.875L163.502 194.89L166.422 192.156ZM176.594 191.922L179.647 194.506L179.659 194.491L179.671 194.477L176.594 191.922ZM187.75 196.234L191.202 198.254L191.215 198.233L191.227 198.211L187.75 196.234ZM180.953 203.312L183.066 206.709L183.08 206.7L183.093 206.692L180.953 203.312ZM171.438 201.938C168.679 201.938 166.23 201.252 164.002 199.896L159.842 206.729C163.364 208.873 167.259 209.938 171.438 209.938V201.938ZM164.018 199.906C161.751 198.511 159.954 196.657 158.593 194.289L151.657 198.274C153.671 201.781 156.405 204.614 159.825 206.719L164.018 199.906ZM158.618 194.332C157.316 191.999 156.641 189.38 156.641 186.391H148.641C148.641 190.651 149.621 194.626 151.632 198.23L158.618 194.332ZM156.641 186.403L156.734 156.45L148.734 156.425L148.641 186.378L156.641 186.403ZM156.734 156.438C156.734 153.509 157.395 150.977 158.654 148.749L151.69 144.813C149.699 148.335 148.734 152.241 148.734 156.438H156.734ZM158.663 148.733C159.954 146.425 161.707 144.597 163.971 143.204L159.779 136.39C156.355 138.497 153.64 141.325 151.681 144.829L158.663 148.733ZM163.982 143.197C166.201 141.822 168.655 141.125 171.438 141.125V133.125C167.22 133.125 163.299 134.209 159.768 136.397L163.982 143.197ZM171.438 141.125C174.326 141.125 176.757 141.812 178.85 143.106L183.056 136.3C179.587 134.156 175.674 133.125 171.438 133.125V141.125ZM178.867 143.116C181.084 144.471 182.843 146.294 184.172 148.652L191.141 144.723C189.157 141.206 186.447 138.373 183.039 136.29L178.867 143.116ZM184.197 148.696C185.506 150.95 186.188 153.499 186.188 156.438H194.188C194.188 152.189 193.182 148.238 191.115 144.679L184.197 148.696ZM186.188 156.438V160.844H194.188V156.438H186.188ZM186.188 160.844C186.188 160.352 186.313 159.249 187.265 158.297C188.218 157.344 189.321 157.219 189.812 157.219V165.219C190.554 165.219 191.845 165.031 192.922 163.953C193.999 162.876 194.188 161.585 194.188 160.844H186.188ZM189.812 157.219H179.031V165.219H189.812V157.219ZM179.031 157.219C179.523 157.219 180.626 157.344 181.578 158.297C182.531 159.249 182.656 160.352 182.656 160.844H174.656C174.656 161.585 174.844 162.876 175.922 163.953C176.999 165.031 178.29 165.219 179.031 165.219V157.219ZM182.656 160.844V156.438H174.656V160.844H182.656ZM182.656 156.438C182.656 153.361 181.627 150.572 179.57 148.281L173.618 153.626C174.31 154.397 174.656 155.264 174.656 156.438H182.656ZM179.57 148.281C177.434 145.902 174.633 144.656 171.438 144.656V152.656C172.367 152.656 173.003 152.941 173.618 153.626L179.57 148.281ZM171.438 144.656C168.135 144.656 165.131 145.851 163.033 148.54L169.342 153.46C169.681 153.024 170.178 152.656 171.438 152.656V144.656ZM163.033 148.54C161.243 150.836 160.359 153.523 160.359 156.438H168.359C168.359 155.227 168.695 154.289 169.342 153.46L163.033 148.54ZM160.359 156.438V186.391H168.359V156.438H160.359ZM160.359 186.391C160.359 189.573 161.32 192.51 163.473 194.859L169.37 189.453C168.774 188.803 168.359 187.896 168.359 186.391H160.359ZM163.502 194.89C165.614 197.146 168.335 198.359 171.438 198.359V190.359C170.603 190.359 169.979 190.104 169.342 189.423L163.502 194.89ZM171.438 198.359C174.719 198.359 177.54 196.996 179.647 194.506L173.54 189.338C172.897 190.098 172.281 190.359 171.438 190.359V198.359ZM179.671 194.477C181.604 192.149 182.656 189.414 182.656 186.391H174.656C174.656 187.43 174.334 188.382 173.516 189.367L179.671 194.477ZM182.656 186.391V181.938H174.656V186.391H182.656ZM182.656 181.938C182.656 182.429 182.531 183.532 181.578 184.485C180.626 185.437 179.523 185.562 179.031 185.562V177.562C178.29 177.562 176.999 177.751 175.922 178.828C174.844 179.905 174.656 181.196 174.656 181.938H182.656ZM179.031 185.562H189.906V177.562H179.031V185.562ZM189.906 185.562C189.415 185.562 188.311 185.437 187.359 184.485C186.407 183.532 186.281 182.429 186.281 181.938H194.281C194.281 181.196 194.093 179.905 193.016 178.828C191.939 177.751 190.648 177.562 189.906 177.562V185.562ZM186.281 181.938V186.391H194.281V181.938H186.281ZM186.281 186.391C186.281 189.329 185.599 191.923 184.273 194.258L191.227 198.211C193.276 194.608 194.281 190.64 194.281 186.391H186.281ZM184.298 194.214C182.894 196.613 181.073 198.502 178.813 199.933L183.093 206.692C186.458 204.561 189.169 201.731 191.202 198.254L184.298 194.214ZM178.84 199.916C176.704 201.245 174.273 201.938 171.438 201.938V209.938C175.664 209.938 179.577 208.88 183.066 206.709L178.84 199.916ZM197.266 204.531L193.266 204.526V204.531H197.266ZM197.359 138.672L201.359 138.678V138.672H197.359ZM208.984 138.672L212.984 138.679V138.672H208.984ZM208.891 193.188L204.891 193.181L204.884 197.188H208.891V193.188ZM228.672 201H197.641V209H228.672V201ZM197.641 201C198.398 201 199.6 201.281 200.483 202.384C201.229 203.317 201.266 204.26 201.266 204.531H193.266C193.266 205.115 193.365 206.293 194.236 207.382C195.243 208.641 196.633 209 197.641 209V201ZM201.266 204.537L201.359 138.678L193.359 138.666L193.266 204.526L201.266 204.537ZM201.359 138.672C201.359 139.132 201.242 140.212 200.305 141.149C199.368 142.085 198.288 142.203 197.828 142.203V134.203C197.055 134.203 195.741 134.399 194.648 135.492C193.555 136.585 193.359 137.899 193.359 138.672H201.359ZM197.828 142.203H208.516V134.203H197.828V142.203ZM208.516 142.203C208.055 142.203 206.975 142.085 206.039 141.149C205.102 140.212 204.984 139.132 204.984 138.672H212.984C212.984 137.899 212.788 136.585 211.696 135.492C210.603 134.399 209.288 134.203 208.516 134.203V142.203ZM204.984 138.665L204.891 193.181L212.891 193.194L212.984 138.679L204.984 138.665ZM208.891 197.188H228.672V189.188H208.891V197.188ZM228.672 197.188C228.212 197.188 227.132 197.07 226.195 196.133C225.258 195.197 225.141 194.117 225.141 193.656H233.141C233.141 192.883 232.945 191.569 231.852 190.476C230.759 189.383 229.445 189.188 228.672 189.188V197.188ZM225.141 193.656V204.531H233.141V193.656H225.141ZM225.141 204.531C225.141 204.071 225.258 202.991 226.195 202.054C227.132 201.118 228.212 201 228.672 201V209C229.445 209 230.759 208.804 231.852 207.711C232.945 206.618 233.141 205.304 233.141 204.531H225.141ZM235.422 204.531L231.422 204.526V204.531H235.422ZM235.516 138.578L239.516 138.584V138.578H235.516ZM247.047 149.781V145.781H243.047V149.781H247.047ZM247.047 164.781H243.047V168.781H247.047V164.781ZM267.109 165.156H263.109V165.173L263.11 165.191L267.109 165.156ZM267.203 176.031H271.203V176.014L271.203 175.997L267.203 176.031ZM247.047 176.406V172.406H243.047V176.406H247.047ZM247.047 193.188H243.047V197.188H247.047V193.188ZM266.828 201H235.797V209H266.828V201ZM235.797 201C236.555 201 237.757 201.281 238.639 202.384C239.385 203.317 239.422 204.26 239.422 204.531H231.422C231.422 205.115 231.521 206.293 232.392 207.382C233.4 208.641 234.789 209 235.797 209V201ZM239.422 204.537L239.516 138.584L231.516 138.572L231.422 204.526L239.422 204.537ZM239.516 138.578C239.516 139.07 239.39 140.173 238.438 141.125C237.486 142.078 236.382 142.203 235.891 142.203V134.203C235.149 134.203 233.858 134.391 232.781 135.468C231.704 136.546 231.516 137.837 231.516 138.578H239.516ZM235.891 142.203H266.734V134.203H235.891V142.203ZM266.734 142.203C265.977 142.203 264.775 141.922 263.892 140.819C263.146 139.887 263.109 138.943 263.109 138.672H271.109C271.109 138.088 271.01 136.91 270.139 135.822C269.132 134.562 267.742 134.203 266.734 134.203V142.203ZM263.109 138.672V149.406H271.109V138.672H263.109ZM263.109 149.406C263.109 148.915 263.235 147.811 264.187 146.859C265.139 145.907 266.243 145.781 266.734 145.781V153.781C267.476 153.781 268.767 153.593 269.844 152.516C270.921 151.439 271.109 150.148 271.109 149.406H263.109ZM266.734 145.781H247.047V153.781H266.734V145.781ZM243.047 149.781V164.781H251.047V149.781H243.047ZM247.047 168.781H266.734V160.781H247.047V168.781ZM266.734 168.781C266.243 168.781 265.139 168.656 264.187 167.703C263.235 166.751 263.109 165.648 263.109 165.156H271.109C271.109 164.415 270.921 163.124 269.844 162.047C268.767 160.969 267.476 160.781 266.734 160.781V168.781ZM263.11 165.191L263.203 176.066L271.203 175.997L271.109 165.122L263.11 165.191ZM263.203 176.031C263.203 175.54 263.329 174.436 264.281 173.484C265.233 172.532 266.337 172.406 266.828 172.406V180.406C267.57 180.406 268.861 180.218 269.938 179.141C271.015 178.064 271.203 176.773 271.203 176.031H263.203ZM266.828 172.406H247.047V180.406H266.828V172.406ZM243.047 176.406V193.188H251.047V176.406H243.047ZM247.047 197.188H266.828V189.188H247.047V197.188ZM266.828 197.188C266.07 197.188 264.868 196.906 263.986 195.803C263.24 194.871 263.203 193.927 263.203 193.656H271.203C271.203 193.073 271.104 191.895 270.233 190.806C269.225 189.547 267.836 189.188 266.828 189.188V197.188ZM263.203 193.656V204.625H271.203V193.656H263.203ZM263.203 204.625C263.203 204.133 263.329 203.03 264.281 202.078C265.233 201.126 266.337 201 266.828 201V209C267.57 209 268.861 208.812 269.938 207.735C271.015 206.657 271.203 205.367 271.203 204.625H263.203Z" fill="#155E75" mask="url(#path-4-outside-2_309_85)"/>
</svg>
