<svg width="374" height="374" viewBox="0 0 374 374" fill="none" xmlns="http://www.w3.org/2000/svg">
<circle cx="187" cy="187" r="185" fill="white" stroke="#155E75" stroke-width="4"/>
<path d="M207.514 235.646H172.378C171.243 235.646 170.675 235.233 170.675 234.408V217.227C170.675 208.765 172.636 200.303 176.557 191.842C180.478 183.277 185.844 175.589 192.655 168.779C195.854 165.58 198.588 162.794 200.858 160.42C203.232 157.944 205.141 155.828 206.585 154.074C209.578 150.566 211.487 147.367 212.312 144.478C213.138 141.485 213.551 137.977 213.551 133.952C213.551 126.522 211.332 120.331 206.895 115.378C202.458 110.425 196.834 107.948 190.023 107.948C183.316 107.948 177.692 110.425 173.152 115.378C168.611 120.331 166.341 126.522 166.341 133.952V157.015C166.341 157.841 165.929 158.253 165.103 158.253H129.193C128.367 158.253 127.955 157.841 127.955 157.015V133.952C127.955 122.085 130.792 111.302 136.468 101.602C142.04 91.9022 149.521 84.2145 158.912 78.5391C168.302 72.7604 178.673 69.8711 190.023 69.8711C201.478 69.8711 211.9 72.7088 221.29 78.3843C230.68 84.0597 238.11 91.799 243.579 101.602C249.151 111.302 251.938 122.085 251.938 133.952C251.938 140.66 251.215 146.799 249.771 152.372C248.223 157.737 245.437 163.361 241.412 169.243C237.388 175.022 231.454 182.245 223.612 190.913C218.349 196.279 214.583 201.077 212.312 205.308C210.146 209.539 209.062 214.182 209.062 219.239V234.408C209.062 235.233 208.546 235.646 207.514 235.646ZM207.514 294H172.378C171.243 294 170.675 293.484 170.675 292.452V257.161C170.675 256.336 171.243 255.923 172.378 255.923H207.514C208.546 255.923 209.062 256.336 209.062 257.161V292.452C209.062 293.484 208.546 294 207.514 294Z" fill="#155E75"/>
</svg>
